<svg width="24" height="24" viewBox="0 0 24 24" fill="none" xmlns="http://www.w3.org/2000/svg">
<mask id="path-1-inside-1" fill="white">
<path fill-rule="evenodd" clip-rule="evenodd" d="M4.94247 3.37151C4.73938 2.61356 3.9603 2.16376 3.20235 2.36685C2.4444 2.56994 1.9946 3.34902 2.19769 4.10697C2.2048 4.13351 2.21262 4.15968 2.22112 4.18545C2.06368 4.17287 1.90144 4.18652 1.74016 4.22973C0.982211 4.43283 0.53241 5.2119 0.735502 5.96985C0.938594 6.7278 1.71767 7.1776 2.47562 6.97451C2.95588 6.84583 3.31242 6.48589 3.45754 6.04661L4.78211 7.13703L4.43555 7.65444C2.44209 9.92275 4.21342 10.6232 5.61043 11.1757L5.61048 11.1757L5.61058 11.1758C5.79344 11.2481 5.96989 11.3179 6.13063 11.3883C7.24168 11.8751 9.40714 15.2296 9.9383 17.2119C10.9538 21.0016 14.8491 23.2506 18.6389 22.2352C22.4286 21.2197 24.6776 17.3243 23.6622 13.5346C22.6467 9.74484 18.8771 8.76068 14.9616 8.5113C11.5735 8.29551 10.887 5.88492 10.887 5.88492C9.90639 2.22522 6.50616 4.40295 5.83639 5.56301L5.5035 6.06001L4.21971 5.00316C4.80264 4.70426 5.11889 4.02991 4.94247 3.37151ZM10.887 5.88492C9.64634 6.23825 9.64656 6.23904 9.64679 6.23983L9.64726 6.24146L9.64825 6.24491L9.65048 6.25251L9.65589 6.27045C9.65993 6.28362 9.66487 6.2992 9.67076 6.31703C9.68254 6.35266 9.69821 6.39741 9.71835 6.45003C9.75856 6.5551 9.81704 6.69266 9.89869 6.85231C10.0616 7.17079 10.3204 7.58449 10.7163 8.00332C11.5304 8.86461 12.8525 9.66958 14.8796 9.79869C16.7838 9.91997 18.5064 10.2152 19.8395 10.8575C21.1185 11.4736 22.0213 12.3949 22.4161 13.8685C23.2472 16.97 21.4066 20.1581 18.305 20.9891C15.2034 21.8202 12.0154 19.9796 11.1843 16.878C10.8688 15.7006 10.1145 14.2362 9.33312 13.0356C8.93516 12.4241 8.50536 11.8426 8.08419 11.3683C7.69982 10.9354 7.19982 10.4484 6.64831 10.2067C6.46485 10.1263 6.26672 10.048 6.08874 9.97765L6.04123 9.95886C5.84171 9.87991 5.65981 9.80715 5.48752 9.73044C5.1332 9.57268 4.93784 9.44757 4.84327 9.35708C4.8747 9.24905 4.99207 8.97534 5.40453 8.50601C5.44168 8.46374 5.47602 8.41908 5.50734 8.37233L6.90818 6.2809C6.92412 6.25711 6.93925 6.23281 6.95356 6.20801C6.99997 6.12763 7.18686 5.90024 7.52677 5.65411C7.85262 5.41817 8.21014 5.24498 8.52182 5.17653C8.82355 5.11027 8.99172 5.15706 9.09397 5.22105C9.19946 5.28707 9.45007 5.50637 9.64096 6.2188L9.64634 6.23825L10.887 5.88492Z"/>
</mask>
<path fill-rule="evenodd" clip-rule="evenodd" d="M4.94247 3.37151C4.73938 2.61356 3.9603 2.16376 3.20235 2.36685C2.4444 2.56994 1.9946 3.34902 2.19769 4.10697C2.2048 4.13351 2.21262 4.15968 2.22112 4.18545C2.06368 4.17287 1.90144 4.18652 1.74016 4.22973C0.982211 4.43283 0.53241 5.2119 0.735502 5.96985C0.938594 6.7278 1.71767 7.1776 2.47562 6.97451C2.95588 6.84583 3.31242 6.48589 3.45754 6.04661L4.78211 7.13703L4.43555 7.65444C2.44209 9.92275 4.21342 10.6232 5.61043 11.1757L5.61048 11.1757L5.61058 11.1758C5.79344 11.2481 5.96989 11.3179 6.13063 11.3883C7.24168 11.8751 9.40714 15.2296 9.9383 17.2119C10.9538 21.0016 14.8491 23.2506 18.6389 22.2352C22.4286 21.2197 24.6776 17.3243 23.6622 13.5346C22.6467 9.74484 18.8771 8.76068 14.9616 8.5113C11.5735 8.29551 10.887 5.88492 10.887 5.88492C9.90639 2.22522 6.50616 4.40295 5.83639 5.56301L5.5035 6.06001L4.21971 5.00316C4.80264 4.70426 5.11889 4.02991 4.94247 3.37151ZM10.887 5.88492C9.64634 6.23825 9.64656 6.23904 9.64679 6.23983L9.64726 6.24146L9.64825 6.24491L9.65048 6.25251L9.65589 6.27045C9.65993 6.28362 9.66487 6.2992 9.67076 6.31703C9.68254 6.35266 9.69821 6.39741 9.71835 6.45003C9.75856 6.5551 9.81704 6.69266 9.89869 6.85231C10.0616 7.17079 10.3204 7.58449 10.7163 8.00332C11.5304 8.86461 12.8525 9.66958 14.8796 9.79869C16.7838 9.91997 18.5064 10.2152 19.8395 10.8575C21.1185 11.4736 22.0213 12.3949 22.4161 13.8685C23.2472 16.97 21.4066 20.1581 18.305 20.9891C15.2034 21.8202 12.0154 19.9796 11.1843 16.878C10.8688 15.7006 10.1145 14.2362 9.33312 13.0356C8.93516 12.4241 8.50536 11.8426 8.08419 11.3683C7.69982 10.9354 7.19982 10.4484 6.64831 10.2067C6.46485 10.1263 6.26672 10.048 6.08874 9.97765L6.04123 9.95886C5.84171 9.87991 5.65981 9.80715 5.48752 9.73044C5.1332 9.57268 4.93784 9.44757 4.84327 9.35708C4.8747 9.24905 4.99207 8.97534 5.40453 8.50601C5.44168 8.46374 5.47602 8.41908 5.50734 8.37233L6.90818 6.2809C6.92412 6.25711 6.93925 6.23281 6.95356 6.20801C6.99997 6.12763 7.18686 5.90024 7.52677 5.65411C7.85262 5.41817 8.21014 5.24498 8.52182 5.17653C8.82355 5.11027 8.99172 5.15706 9.09397 5.22105C9.19946 5.28707 9.45007 5.50637 9.64096 6.2188L9.64634 6.23825L10.887 5.88492Z" fill="black"/>
<path d="M3.20235 2.36685L3.061 1.83932L3.20235 2.36685ZM4.94247 3.37151L4.41494 3.51286L4.41494 3.51286L4.94247 3.37151ZM2.19769 4.10697L2.72522 3.96562L2.72522 3.96562L2.19769 4.10697ZM2.22112 4.18545L2.1776 4.72985C2.35996 4.74443 2.53751 4.66673 2.65055 4.52289C2.76358 4.37904 2.79708 4.18815 2.73978 4.01441L2.22112 4.18545ZM1.74016 4.22973L1.59881 3.70221L1.59881 3.70221L1.74016 4.22973ZM2.47562 6.97451L2.61697 7.50204L2.61697 7.50204L2.47562 6.97451ZM3.45754 6.04661L3.80465 5.62497C3.66555 5.51046 3.47892 5.47192 3.30584 5.52197C3.13275 5.57202 2.99549 5.70421 2.93897 5.87529L3.45754 6.04661ZM4.78211 7.13703L5.23586 7.44096C5.39213 7.20765 5.34601 6.89387 5.12922 6.71539L4.78211 7.13703ZM4.43555 7.65444L4.84578 8.01496C4.86151 7.99707 4.87605 7.97816 4.8893 7.95837L4.43555 7.65444ZM5.61043 11.1757L5.81326 10.6686L5.81127 10.6678L5.61043 11.1757ZM5.61058 11.1758L5.40775 11.6828L5.40974 11.6836L5.61058 11.1758ZM6.13063 11.3883L5.91146 11.8885L5.91146 11.8885L6.13063 11.3883ZM9.9383 17.2119L10.4658 17.0705L10.4658 17.0705L9.9383 17.2119ZM23.6622 13.5346L23.1347 13.6759L23.1347 13.6759L23.6622 13.5346ZM14.9616 8.5113L14.9269 9.05633L14.9269 9.05633L14.9616 8.5113ZM5.83639 5.56301L6.29015 5.86694C6.29689 5.85687 6.3033 5.84658 6.30936 5.83608L5.83639 5.56301ZM5.5035 6.06001L5.15639 6.48165C5.27544 6.57966 5.43036 6.62277 5.58292 6.60034C5.73548 6.57792 5.87144 6.49205 5.95725 6.36394L5.5035 6.06001ZM4.21971 5.00316L3.97053 4.51718C3.80688 4.60109 3.69645 4.76173 3.67673 4.94457C3.657 5.12742 3.73062 5.30791 3.8726 5.4248L4.21971 5.00316ZM9.64679 6.23983L9.1216 6.38966L9.12191 6.39071L9.64679 6.23983ZM9.64726 6.24146L9.12238 6.39235L9.12256 6.39299L9.64726 6.24146ZM9.64825 6.24491L9.12356 6.39644L9.12415 6.39846L9.64825 6.24491ZM9.65048 6.25251L9.12635 6.40606L9.1276 6.41019L9.65048 6.25251ZM9.65589 6.27045L9.133 6.42813L9.1338 6.43073L9.65589 6.27045ZM9.67076 6.31703L9.15224 6.48848L9.15224 6.48848L9.67076 6.31703ZM9.71835 6.45003L10.2284 6.25482L10.2284 6.25481L9.71835 6.45003ZM9.89869 6.85231L9.41245 7.10098L9.41245 7.10098L9.89869 6.85231ZM10.7163 8.00332L11.1132 7.62817L11.1132 7.62817L10.7163 8.00332ZM14.8796 9.79869L14.9143 9.25366L14.9143 9.25366L14.8796 9.79869ZM19.8395 10.8575L20.0766 10.3655L20.0766 10.3655L19.8395 10.8575ZM22.4161 13.8685L22.9437 13.7271L22.9437 13.7271L22.4161 13.8685ZM18.305 20.9891L18.4464 21.5167L18.4464 21.5167L18.305 20.9891ZM11.1843 16.878L11.7119 16.7367L11.7119 16.7367L11.1843 16.878ZM9.33312 13.0356L8.87538 13.3335L8.87538 13.3335L9.33312 13.0356ZM8.08419 11.3683L7.67582 11.7309L7.67582 11.7309L8.08419 11.3683ZM6.64831 10.2067L6.86748 9.70649L6.86748 9.70649L6.64831 10.2067ZM6.08874 9.97765L5.88791 10.4855L5.88796 10.4855L6.08874 9.97765ZM6.04123 9.95886L5.84028 10.4667L5.84039 10.4667L6.04123 9.95886ZM5.48752 9.73044L5.26539 10.2294L5.26539 10.2294L5.48752 9.73044ZM4.84327 9.35708L4.31888 9.2045C4.262 9.40001 4.31859 9.61092 4.46571 9.75169L4.84327 9.35708ZM5.40453 8.50601L5.81476 8.86653L5.81476 8.86653L5.40453 8.50601ZM5.50734 8.37233L5.96109 8.67626L5.96109 8.67626L5.50734 8.37233ZM6.90818 6.2809L7.36194 6.58483L7.36194 6.58483L6.90818 6.2809ZM6.95356 6.20801L7.42653 6.48108L7.42654 6.48107L6.95356 6.20801ZM7.52677 5.65411L7.84707 6.09646L7.52677 5.65411ZM8.52182 5.17653L8.40468 4.6431L8.40468 4.64311L8.52182 5.17653ZM9.09397 5.22105L8.80423 5.684L8.80424 5.684L9.09397 5.22105ZM9.64096 6.2188L9.11342 6.36015L9.11456 6.36428L9.64096 6.2188ZM9.64634 6.23825L9.11994 6.38374C9.15872 6.52406 9.25192 6.64309 9.37884 6.71439C9.50577 6.7857 9.65591 6.80338 9.79592 6.7635L9.64634 6.23825ZM3.3437 2.89438C3.8103 2.76935 4.28991 3.04625 4.41494 3.51286L5.46999 3.23016C5.18884 2.18086 4.11029 1.55817 3.061 1.83932L3.3437 2.89438ZM2.72522 3.96562C2.60019 3.49901 2.8771 3.0194 3.3437 2.89438L3.061 1.83932C2.0117 2.12048 1.38901 3.19902 1.67016 4.24832L2.72522 3.96562ZM2.73978 4.01441C2.73452 3.99844 2.72965 3.98218 2.72522 3.96562L1.67016 4.24832C1.67995 4.28485 1.69073 4.32092 1.70246 4.3565L2.73978 4.01441ZM1.88151 4.75726C1.98174 4.7304 2.08142 4.72216 2.1776 4.72985L2.26465 3.64105C2.04594 3.62357 1.82114 3.64263 1.59881 3.70221L1.88151 4.75726ZM1.26303 5.8285C1.138 5.3619 1.41491 4.88229 1.88151 4.75726L1.59881 3.70221C0.549516 3.98337 -0.073182 5.06191 0.207975 6.1112L1.26303 5.8285ZM2.33427 6.44698C1.86767 6.57201 1.38806 6.29511 1.26303 5.8285L0.207975 6.1112C0.489133 7.1605 1.56768 7.7832 2.61697 7.50204L2.33427 6.44698ZM2.93897 5.87529C2.84911 6.1473 2.6294 6.36791 2.33427 6.44698L2.61697 7.50204C3.28236 7.32375 3.77573 6.82448 3.97611 6.21793L2.93897 5.87529ZM5.12922 6.71539L3.80465 5.62497L3.11044 6.46825L4.435 7.55867L5.12922 6.71539ZM4.8893 7.95837L5.23586 7.44096L4.32835 6.83311L3.98179 7.35051L4.8893 7.95837ZM5.81127 10.6678C5.45603 10.5274 5.1144 10.3915 4.8165 10.2308C4.515 10.0681 4.31198 9.90726 4.19943 9.74597C4.10391 9.60911 4.05649 9.45066 4.11333 9.20885C4.17673 8.9391 4.37586 8.54967 4.84578 8.01496L4.02532 7.29392C3.49851 7.89337 3.17151 8.44211 3.05003 8.95893C2.92199 9.50369 3.03094 9.98021 3.3037 10.3711C3.55942 10.7375 3.93659 10.9971 4.29782 11.192C4.66266 11.3889 5.06631 11.5478 5.40958 11.6836L5.81127 10.6678ZM5.81331 10.6687L5.81326 10.6686L5.4076 11.6828L5.40765 11.6828L5.81331 10.6687ZM5.81341 10.6687L5.81331 10.6687L5.40765 11.6828L5.40775 11.6828L5.81341 10.6687ZM6.3498 10.8881C6.17825 10.8129 5.99213 10.7394 5.81142 10.6679L5.40974 11.6836C5.59476 11.7568 5.76152 11.8228 5.91146 11.8885L6.3498 10.8881ZM10.4658 17.0705C10.1791 16.0005 9.47099 14.6112 8.70966 13.4414C8.32591 12.8517 7.91823 12.3017 7.52798 11.8622C7.1533 11.4403 6.74345 11.0605 6.3498 10.8881L5.91146 11.8885C6.07333 11.9594 6.35081 12.1816 6.71124 12.5874C7.05609 12.9758 7.4313 13.4795 7.79419 14.0372C8.52614 15.1618 9.16633 16.4409 9.41078 17.3532L10.4658 17.0705ZM18.4975 21.7077C14.9991 22.645 11.4032 20.5689 10.4658 17.0705L9.41078 17.3532C10.5043 21.4343 14.6992 23.8562 18.7802 22.7627L18.4975 21.7077ZM23.1347 13.6759C24.0721 17.1743 21.9959 20.7703 18.4975 21.7077L18.7802 22.7627C22.8613 21.6692 25.2832 17.4743 24.1897 13.3932L23.1347 13.6759ZM14.9269 9.05633C16.862 9.17958 18.6991 9.48241 20.1624 10.1873C21.6027 10.8812 22.6747 11.9594 23.1347 13.6759L24.1897 13.3932C23.6342 11.32 22.3137 10.0113 20.6364 9.20329C18.9821 8.40634 16.9767 8.0924 14.9963 7.96627L14.9269 9.05633ZM10.887 5.88492C10.3618 6.03451 10.3619 6.03485 10.3619 6.03519C10.362 6.03532 10.3621 6.03568 10.3622 6.03593C10.3623 6.03644 10.3625 6.03699 10.3626 6.03758C10.363 6.03875 10.3634 6.04008 10.3638 6.04155C10.3647 6.04449 10.3657 6.04803 10.367 6.05213C10.3695 6.06034 10.3728 6.07085 10.377 6.0835C10.3854 6.1088 10.3972 6.14274 10.4131 6.18414C10.4447 6.26687 10.4926 6.37989 10.561 6.51362C10.6976 6.78071 10.9177 7.13349 11.2569 7.49234C11.9447 8.22004 13.0918 8.93945 14.9269 9.05633L14.9963 7.96627C13.4433 7.86735 12.5531 7.27358 12.0507 6.74203C11.7947 6.47126 11.6315 6.20792 11.5335 6.01628C11.4845 5.92064 11.4523 5.84364 11.4332 5.79371C11.4236 5.76877 11.4174 5.75071 11.4141 5.74059C11.4124 5.73554 11.4114 5.73248 11.4112 5.73155C11.411 5.73109 11.411 5.73116 11.4112 5.73179C11.4113 5.7321 11.4115 5.73255 11.4116 5.73314C11.4117 5.73344 11.4118 5.73377 11.4119 5.73413C11.412 5.73431 11.4121 5.73461 11.4121 5.73471C11.4122 5.73502 11.4123 5.73533 10.887 5.88492ZM6.30936 5.83608C6.42556 5.63482 6.69964 5.33463 7.09051 5.05161C7.47542 4.7729 7.92575 4.54584 8.36227 4.44998C8.79458 4.35504 9.17594 4.39482 9.4886 4.5905C9.80263 4.78703 10.1373 5.19708 10.3595 6.02627L11.4145 5.74357C11.1464 4.74292 10.6883 4.05279 10.0681 3.66461C9.44646 3.27557 8.75204 3.24609 8.12799 3.38313C7.50816 3.51925 6.92155 3.8254 6.44991 4.16691C5.98421 4.50412 5.58211 4.91118 5.36342 5.28994L6.30936 5.83608ZM5.95725 6.36394L6.29015 5.86694L5.38264 5.25909L5.04974 5.75609L5.95725 6.36394ZM3.8726 5.4248L5.15639 6.48165L5.85061 5.63837L4.56682 4.58152L3.8726 5.4248ZM4.41494 3.51286C4.52337 3.91754 4.32925 4.33325 3.97053 4.51718L4.46889 5.48913C5.27604 5.07528 5.7144 4.14229 5.46999 3.23016L4.41494 3.51286ZM10.172 6.09C10.1683 6.07728 10.201 6.17193 10.1908 6.28751C10.1787 6.42541 10.1179 6.53019 10.0593 6.59772C10.009 6.65558 9.95839 6.68899 9.93675 6.70255C9.91142 6.71841 9.89008 6.72883 9.87902 6.73402C9.85706 6.74432 9.83935 6.75076 9.83461 6.75249C9.82748 6.75509 9.82196 6.75691 9.81966 6.75767C9.8129 6.75989 9.80989 6.76069 9.8206 6.75753C9.83762 6.7525 9.87438 6.74185 9.95215 6.71954C10.1066 6.67525 10.4162 6.58686 11.0366 6.41017L10.7374 5.35967C10.1172 5.53632 9.80655 5.62499 9.65098 5.66961C9.57374 5.69177 9.53306 5.70354 9.51142 5.70993C9.50279 5.71247 9.49015 5.71622 9.47859 5.72001C9.47509 5.72117 9.46868 5.7233 9.46088 5.72614C9.45547 5.72811 9.43732 5.73473 9.41507 5.74517C9.40387 5.75043 9.38243 5.7609 9.35702 5.77682C9.3353 5.79042 9.2846 5.82387 9.23435 5.88177C9.17571 5.94933 9.11483 6.05415 9.10273 6.19207C9.09733 6.25371 9.10341 6.30478 9.10972 6.33898C9.1128 6.35563 9.11607 6.36896 9.11817 6.37706C9.119 6.38021 9.12028 6.38494 9.12072 6.38651C9.12116 6.38808 9.1216 6.38965 9.1216 6.38965L10.172 6.09ZM10.1721 6.09058L10.1717 6.08894L9.12191 6.39071L9.12238 6.39235L10.1721 6.09058ZM10.1729 6.09338L10.172 6.08993L9.12256 6.39299L9.12356 6.39644L10.1729 6.09338ZM10.1746 6.09896L10.1724 6.09136L9.12415 6.39846L9.12637 6.40605L10.1746 6.09896ZM10.1788 6.11277L10.1734 6.09483L9.1276 6.41019L9.13301 6.42813L10.1788 6.11277ZM10.1893 6.14557C10.1846 6.13155 10.1809 6.1197 10.178 6.11017L9.1338 6.43073C9.13896 6.44755 9.14508 6.46685 9.15224 6.48848L10.1893 6.14557ZM10.2284 6.25481C10.2114 6.21043 10.1986 6.17362 10.1893 6.14557L9.15224 6.48848C9.16653 6.5317 9.185 6.58439 9.2083 6.64525L10.2284 6.25481ZM10.3849 6.60365C10.313 6.46303 10.2623 6.34349 10.2284 6.25482L9.20829 6.64525C9.25479 6.76672 9.32106 6.92228 9.41245 7.10098L10.3849 6.60365ZM11.1132 7.62817C10.7589 7.25338 10.5285 6.8844 10.3849 6.60364L9.41245 7.10098C9.59461 7.45718 9.88187 7.91559 10.3194 8.37848L11.1132 7.62817ZM14.9143 9.25366C13.0282 9.13353 11.8346 8.39141 11.1132 7.62817L10.3194 8.37848C11.2262 9.33782 12.6767 10.2056 14.8449 10.3437L14.9143 9.25366ZM20.0766 10.3655C18.6478 9.67717 16.841 9.37638 14.9143 9.25366L14.8449 10.3437C16.7266 10.4636 18.365 10.7533 19.6025 11.3495L20.0766 10.3655ZM22.9437 13.7271C22.5012 12.0757 21.4745 11.0389 20.0766 10.3655L19.6025 11.3495C20.7626 11.9083 21.5414 12.7141 21.8886 14.0098L22.9437 13.7271ZM18.4464 21.5167C21.8393 20.6075 23.8528 17.12 22.9437 13.7271L21.8886 14.0098C22.6416 16.82 20.9739 19.7086 18.1637 20.4616L18.4464 21.5167ZM10.6568 17.0194C11.5659 20.4123 15.0534 22.4258 18.4464 21.5167L18.1637 20.4616C15.3534 21.2146 12.4649 19.5469 11.7119 16.7367L10.6568 17.0194ZM8.87538 13.3335C9.642 14.5115 10.3624 15.9207 10.6568 17.0194L11.7119 16.7367C11.3752 15.4804 10.5869 13.9609 9.79085 12.7377L8.87538 13.3335ZM7.67582 11.7309C8.0743 12.1796 8.48786 12.7381 8.87538 13.3335L9.79085 12.7377C9.38246 12.1102 8.93643 11.5055 8.49256 11.0056L7.67582 11.7309ZM6.42915 10.7069C6.86525 10.898 7.29932 11.3069 7.67582 11.7309L8.49256 11.0056C8.10032 10.5639 7.53439 9.99868 6.86748 9.70649L6.42915 10.7069ZM5.88796 10.4855C6.06766 10.5566 6.25638 10.6313 6.42915 10.7069L6.86748 9.70649C6.67331 9.62141 6.46577 9.53943 6.28953 9.46976L5.88796 10.4855ZM5.84039 10.4667L5.88791 10.4855L6.28958 9.46978L6.24206 9.45099L5.84039 10.4667ZM5.26539 10.2294C5.44947 10.3113 5.64126 10.3879 5.84028 10.4667L6.24217 9.45103C6.04216 9.37189 5.87015 9.30298 5.70966 9.23152L5.26539 10.2294ZM4.46571 9.75169C4.63054 9.9094 4.89692 10.0653 5.26539 10.2294L5.70966 9.23152C5.36947 9.08006 5.24515 8.98575 5.22083 8.96248L4.46571 9.75169ZM4.9943 8.14549C4.55094 8.64998 4.38039 8.9931 4.31888 9.2045L5.36766 9.50966C5.36761 9.50984 5.38308 9.45782 5.44863 9.34917C5.5138 9.24115 5.6259 9.08144 5.81476 8.86653L4.9943 8.14549ZM5.05359 8.0684C5.03553 8.09536 5.01572 8.12112 4.9943 8.14549L5.81476 8.86653C5.86764 8.80636 5.91652 8.7428 5.96109 8.67626L5.05359 8.0684ZM6.45443 5.97697L5.05359 8.0684L5.96109 8.67626L7.36194 6.58483L6.45443 5.97697ZM6.4806 5.93494C6.47234 5.94924 6.46362 5.96326 6.45443 5.97698L7.36194 6.58483C7.38462 6.55097 7.40616 6.51637 7.42653 6.48108L6.4806 5.93494ZM7.20647 5.21176C6.82915 5.48498 6.57824 5.76582 6.48059 5.93495L7.42654 6.48107C7.4174 6.49691 7.44075 6.4571 7.52156 6.37405C7.59502 6.29853 7.70297 6.2008 7.84707 6.09646L7.20647 5.21176ZM8.40468 4.64311C8.0014 4.73167 7.57575 4.94437 7.20647 5.21176L7.84707 6.09646C8.12949 5.89196 8.41888 5.75829 8.63896 5.70996L8.40468 4.64311ZM9.3837 4.75811C9.12969 4.59913 8.80631 4.55491 8.40468 4.6431L8.63896 5.70996C8.74384 5.68692 8.79779 5.68975 8.81585 5.69198C8.82956 5.69367 8.82103 5.69451 8.80423 5.684L9.3837 4.75811ZM10.1685 6.07745C9.95412 5.27741 9.64107 4.91918 9.3837 4.7581L8.80424 5.684C8.75784 5.65496 8.94601 5.73533 9.11343 6.36015L10.1685 6.07745ZM10.1727 6.09277L10.1674 6.07331L9.11456 6.36428L9.11994 6.38374L10.1727 6.09277ZM10.7374 5.35967L9.49675 5.713L9.79592 6.7635L11.0366 6.41017L10.7374 5.35967Z" fill="black" mask="url(#path-1-inside-1)"/>
</svg>
